<?xml version="1.0" standalone="no"?>
<!DOCTYPE svg PUBLIC "-//W3C//DTD SVG 20010904//EN"
 "http://www.w3.org/TR/2001/REC-SVG-20010904/DTD/svg10.dtd">
<svg version="1.0" xmlns="http://www.w3.org/2000/svg"
 width="300.000000pt" height="45.000000pt" viewBox="0 0 300.000000 45.000000"
 preserveAspectRatio="xMidYMid meet">
<metadata>
Created by potrace 1.10, written by Peter Selinger 2001-2011
</metadata>
<g transform="translate(0.000000,45.000000) scale(0.100000,-0.100000)"
fill="#000000" stroke="none">
<path d="M2470 415 c0 -14 5 -25 10 -25 6 0 10 11 10 25 0 14 -4 25 -10 25 -5
0 -10 -11 -10 -25z"/>
<path d="M2980 270 c0 -107 4 -170 10 -170 6 0 10 63 10 170 0 107 -4 170 -10
170 -6 0 -10 -63 -10 -170z"/>
<path d="M104 416 c-41 -18 -91 -80 -99 -122 -18 -96 67 -194 168 -194 35 0
124 37 114 46 -4 4 -22 -1 -41 -10 -79 -37 -168 -10 -207 64 -36 66 -14 143
52 188 29 20 43 23 89 19 30 -3 66 -8 80 -12 l25 -7 -24 18 c-32 23 -117 29
-157 10z"/>
<path d="M1178 407 c-35 -21 -75 -64 -67 -71 2 -2 47 -25 99 -51 140 -70 180
-95 174 -109 -9 -24 -81 -56 -124 -56 -48 0 -73 11 -117 53 -18 17 -33 26 -33
21 0 -13 58 -68 87 -83 55 -28 163 3 202 58 l20 27 -144 75 c-137 71 -143 75
-127 93 50 55 152 61 216 12 37 -28 51 -22 18 7 -54 49 -146 60 -204 24z"/>
<path d="M2253 287 l2 -119 37 -34 c21 -19 47 -34 58 -34 29 0 25 7 -16 26
-49 23 -62 48 -70 132 l-7 72 29 1 c28 1 29 1 4 8 -17 5 -27 17 -32 36 -4 17
-6 -23 -5 -88z"/>
<path d="M436 320 c-49 -43 -61 -86 -40 -139 10 -24 29 -49 49 -61 35 -22 100
-27 111 -9 5 8 -2 10 -22 6 -56 -10 -119 33 -130 88 -19 100 116 164 187 89
21 -22 24 -37 28 -110 4 -103 21 -112 21 -11 0 87 -20 132 -70 159 -52 27 -93
23 -134 -12z"/>
<path d="M823 330 c-58 -35 -68 -61 -72 -197 -2 -85 0 -123 8 -123 7 0 11 39
11 121 0 66 4 129 10 139 14 27 73 60 106 60 37 0 70 -22 89 -60 19 -38 19
-65 -2 -100 -22 -37 -56 -55 -104 -53 -23 1 -37 -2 -34 -8 9 -14 73 -11 106 6
35 19 69 70 69 105 0 56 -74 130 -130 130 -14 0 -39 -9 -57 -20z"/>
<path d="M1595 331 c-65 -40 -69 -51 -73 -192 -3 -91 -1 -129 7 -129 7 0 11
40 11 128 0 121 1 130 23 149 69 63 144 56 182 -17 19 -38 19 -65 -2 -100 -22
-37 -56 -55 -104 -53 -23 1 -37 -2 -34 -8 9 -14 73 -11 105 6 33 17 70 73 70
106 0 55 -74 129 -130 129 -14 0 -38 -8 -55 -19z"/>
<path d="M1955 336 c-44 -20 -66 -49 -72 -97 -8 -53 17 -102 62 -123 36 -17
91 -21 99 -7 3 5 -12 8 -32 7 -48 -1 -88 24 -109 68 -19 41 -12 78 22 111 31
32 68 40 116 26 52 -16 69 -50 69 -140 0 -38 5 -73 10 -76 16 -10 12 130 -4
170 -25 60 -101 89 -161 61z"/>
<path d="M2672 330 c-35 -22 -72 -74 -72 -103 0 -34 33 -89 64 -108 33 -20
101 -26 111 -10 3 6 -11 9 -34 8 -22 0 -50 5 -64 12 -28 15 -57 61 -57 91 0
53 57 110 110 110 34 0 78 -28 95 -60 9 -18 15 -56 15 -100 0 -40 4 -70 10
-70 6 0 10 29 10 68 0 80 -20 127 -69 159 -42 28 -76 29 -119 3z"/>
<path d="M2470 220 c0 -73 4 -120 10 -120 6 0 10 47 10 120 0 73 -4 120 -10
120 -6 0 -10 -47 -10 -120z"/>
</g>
</svg>
